<svg width="175" height="164" viewBox="0 0 175 164" fill="none" xmlns="http://www.w3.org/2000/svg">
<path d="M49.3203 24.8984H57.7812V31.0156H49.3203V40.5781H42.875V31.0156H34.3906V24.8984H42.875V15.7344H49.3203V24.8984ZM84.9688 44H61.5781V39.3594L72.6172 27.5938C74.1328 25.9375 75.25 24.4922 75.9688 23.2578C76.7031 22.0234 77.0703 20.8516 77.0703 19.7422C77.0703 18.2266 76.6875 17.0391 75.9219 16.1797C75.1562 15.3047 74.0625 14.8672 72.6406 14.8672C71.1094 14.8672 69.8984 15.3984 69.0078 16.4609C68.1328 17.5078 67.6953 18.8906 67.6953 20.6094H60.8984C60.8984 18.5312 61.3906 16.6328 62.375 14.9141C63.375 13.1953 64.7812 11.8516 66.5938 10.8828C68.4062 9.89844 70.4609 9.40625 72.7578 9.40625C76.2734 9.40625 79 10.25 80.9375 11.9375C82.8906 13.625 83.8672 16.0078 83.8672 19.0859C83.8672 20.7734 83.4297 22.4922 82.5547 24.2422C81.6797 25.9922 80.1797 28.0312 78.0547 30.3594L70.2969 38.5391H84.9688V44ZM112.109 29.8906C112.109 34.6094 111.133 38.2188 109.18 40.7188C107.227 43.2188 104.367 44.4688 100.602 44.4688C96.8828 44.4688 94.0391 43.2422 92.0703 40.7891C90.1016 38.3359 89.0938 34.8203 89.0469 30.2422V23.9609C89.0469 19.1953 90.0312 15.5781 92 13.1094C93.9844 10.6406 96.8359 9.40625 100.555 9.40625C104.273 9.40625 107.117 10.6328 109.086 13.0859C111.055 15.5234 112.062 19.0312 112.109 23.6094V29.8906ZM105.336 23C105.336 20.1719 104.945 18.1172 104.164 16.8359C103.398 15.5391 102.195 14.8906 100.555 14.8906C98.9609 14.8906 97.7812 15.5078 97.0156 16.7422C96.2656 17.9609 95.8672 19.875 95.8203 22.4844V30.7812C95.8203 33.5625 96.1953 35.6328 96.9453 36.9922C97.7109 38.3359 98.9297 39.0078 100.602 39.0078C102.258 39.0078 103.453 38.3594 104.188 37.0625C104.922 35.7656 105.305 33.7812 105.336 31.1094V23ZM139.672 29.8906C139.672 34.6094 138.695 38.2188 136.742 40.7188C134.789 43.2188 131.93 44.4688 128.164 44.4688C124.445 44.4688 121.602 43.2422 119.633 40.7891C117.664 38.3359 116.656 34.8203 116.609 30.2422V23.9609C116.609 19.1953 117.594 15.5781 119.562 13.1094C121.547 10.6406 124.398 9.40625 128.117 9.40625C131.836 9.40625 134.68 10.6328 136.648 13.0859C138.617 15.5234 139.625 19.0312 139.672 23.6094V29.8906ZM132.898 23C132.898 20.1719 132.508 18.1172 131.727 16.8359C130.961 15.5391 129.758 14.8906 128.117 14.8906C126.523 14.8906 125.344 15.5078 124.578 16.7422C123.828 17.9609 123.43 19.875 123.383 22.4844V30.7812C123.383 33.5625 123.758 35.6328 124.508 36.9922C125.273 38.3359 126.492 39.0078 128.164 39.0078C129.82 39.0078 131.016 38.3594 131.75 37.0625C132.484 35.7656 132.867 33.7812 132.898 31.1094V23Z" fill="black" fill-opacity="0.87"/>
<rect x="53" y="88" width="68.5" height="11.5" rx="5.75" fill="#2196F3"/>
<path d="M39.207 140.383H32.1992V145.633H40.3906V148H29.2344V130.938H40.3086V133.328H32.1992V138.039H39.207V140.383ZM46.6484 130.938L51.5703 144.016L56.4805 130.938H60.3125V148H57.3594V142.375L57.6523 134.852L52.6133 148H50.4922L45.4648 134.863L45.7578 142.375V148H42.8047V130.938H46.6484ZM66.793 141.66V148H63.8281V130.938H70.3555C72.2617 130.938 73.7734 131.434 74.8906 132.426C76.0156 133.418 76.5781 134.73 76.5781 136.363C76.5781 138.035 76.0273 139.336 74.9258 140.266C73.832 141.195 72.2969 141.66 70.3203 141.66H66.793ZM66.793 139.281H70.3555C71.4102 139.281 72.2148 139.035 72.7695 138.543C73.3242 138.043 73.6016 137.324 73.6016 136.387C73.6016 135.465 73.3203 134.73 72.7578 134.184C72.1953 133.629 71.4219 133.344 70.4375 133.328H66.793V139.281ZM82.1445 145.633H89.8906V148H79.1797V130.938H82.1445V145.633ZM105.031 139.914C105.031 141.586 104.742 143.055 104.164 144.32C103.586 145.578 102.758 146.547 101.68 147.227C100.609 147.898 99.375 148.234 97.9766 148.234C96.5938 148.234 95.3594 147.898 94.2734 147.227C93.1953 146.547 92.3594 145.582 91.7656 144.332C91.1797 143.082 90.8828 141.641 90.875 140.008V139.047C90.875 137.383 91.168 135.914 91.7539 134.641C92.3477 133.367 93.1797 132.395 94.25 131.723C95.3281 131.043 96.5625 130.703 97.9531 130.703C99.3438 130.703 100.574 131.039 101.645 131.711C102.723 132.375 103.555 133.336 104.141 134.594C104.727 135.844 105.023 137.301 105.031 138.965V139.914ZM102.066 139.023C102.066 137.133 101.707 135.684 100.988 134.676C100.277 133.668 99.2656 133.164 97.9531 133.164C96.6719 133.164 95.668 133.668 94.9414 134.676C94.2227 135.676 93.8555 137.094 93.8398 138.93V139.914C93.8398 141.789 94.2031 143.238 94.9297 144.262C95.6641 145.285 96.6797 145.797 97.9766 145.797C99.2891 145.797 100.297 145.297 101 144.297C101.711 143.297 102.066 141.836 102.066 139.914V139.023ZM113.035 139.023L116.961 130.938H120.242L114.523 141.719V148H111.547V141.719L105.816 130.938H109.109L113.035 139.023ZM132.066 140.383H125.059V145.633H133.25V148H122.094V130.938H133.168V133.328H125.059V138.039H132.066V140.383ZM145.637 140.383H138.629V145.633H146.82V148H135.664V130.938H146.738V133.328H138.629V138.039H145.637V140.383Z" fill="black" fill-opacity="0.87"/>
</svg>
