<svg width="211" height="39" viewBox="0 0 211 39" fill="none" xmlns="http://www.w3.org/2000/svg">
<rect x="0.5" y="0.5" width="210" height="37.5" rx="4.5" fill="white" stroke="#2196F3"/>
<path fill-rule="evenodd" clip-rule="evenodd" d="M188.5 20.6416L194.334 15.1023C194.478 14.9632 194.715 14.9665 194.863 15.1089L195.887 16.0995C196.035 16.242 196.038 16.4739 195.894 16.613L188.771 23.378C188.698 23.4509 188.597 23.4841 188.5 23.4774C188.4 23.4807 188.302 23.4476 188.229 23.378L181.106 16.613C180.962 16.4739 180.965 16.242 181.113 16.0995L182.137 15.1089C182.285 14.9665 182.522 14.9632 182.666 15.1023L188.5 20.6416Z" fill="black" fill-opacity="0.38"/>
<path fill-rule="evenodd" clip-rule="evenodd" d="M24.75 9.5C19.3652 9.5 15 13.8652 15 19.25C15 24.6348 19.3652 29 24.75 29C30.1348 29 34.5 24.6348 34.5 19.25C34.5 13.8652 30.1348 9.5 24.75 9.5ZM23.7399 27.5468C21.89 27.3253 20.1784 26.4972 18.8406 25.1594C17.2621 23.5809 16.3928 21.4823 16.3928 19.25C16.3928 17.2405 17.0977 15.3395 18.3898 13.8285C18.423 14.2277 18.5052 14.6557 18.4842 14.9617C18.4073 16.0771 18.2972 16.7751 18.9501 17.7162C19.2045 18.0827 19.2669 18.6081 19.3907 19.0323C19.5118 19.4473 19.9955 19.665 20.3291 19.9207C21.0022 20.4368 21.6461 21.0366 22.3598 21.4908C22.8309 21.7905 23.1251 21.9396 22.9872 22.5145C22.8762 22.9768 22.8452 23.2615 22.6061 23.6734C22.5331 23.799 22.8816 24.607 22.9975 24.723C23.349 25.0744 23.6978 25.3968 24.0809 25.7132C24.6748 26.204 24.0232 26.8416 23.7399 27.5468ZM30.6594 25.1594C29.4578 26.3609 27.9548 27.1509 26.3208 27.4601C26.5524 26.8874 26.9647 26.3787 27.3472 26.0837C27.6798 25.827 28.0965 25.3333 28.2703 24.9422C28.4439 24.5517 28.6739 24.2131 28.9067 23.8539C29.2379 23.343 28.0902 22.5725 27.7183 22.4111C26.8814 22.0477 26.2514 21.5575 25.5076 21.0341C24.9777 20.6613 23.9018 21.2288 23.3035 20.9677C22.4841 20.6099 21.809 19.9882 21.0967 19.4518C20.3618 18.8983 20.3973 18.2529 20.3973 17.4363C20.973 17.4575 21.792 17.277 22.1742 17.74C22.2948 17.8861 22.7095 18.5388 22.9871 18.3069C23.2139 18.1174 22.8191 17.3577 22.7428 17.1791C22.5082 16.63 23.2774 16.4158 23.6711 16.0434C24.1848 15.5576 25.2869 14.7957 25.1998 14.4475C25.1127 14.0992 24.0971 13.1126 23.5006 13.2665C23.4112 13.2896 22.6242 14.1148 22.4721 14.2443C22.4761 13.975 22.4802 13.7057 22.4843 13.4363C22.4869 13.2663 22.167 13.0917 22.1819 12.982C22.2194 12.7048 22.9911 12.2017 23.183 11.9809C23.0485 11.8969 22.5896 11.5027 22.4507 11.5605C22.1145 11.7007 21.7347 11.7973 21.3984 11.9374C21.3984 11.8207 21.3842 11.7112 21.3674 11.603C22.0412 11.3046 22.7543 11.0972 23.4913 10.9865L24.1515 11.2518L24.6176 11.805L25.0828 12.2847L25.4894 12.4157L26.1353 11.8065L25.9688 11.3717V10.9808C27.2461 11.1663 28.4524 11.6428 29.5088 12.3777C29.3198 12.3946 29.1121 12.4224 28.8778 12.4522C28.781 12.395 28.6568 12.369 28.5513 12.3292C28.8575 12.9875 29.1768 13.6366 29.5012 14.2861C29.8478 14.9799 30.6165 15.7241 30.7515 16.4564C30.9106 17.3197 30.8002 18.1038 30.8872 19.1195C30.9711 20.0975 31.9899 21.2088 31.9899 21.2088C31.9899 21.2088 32.4604 21.369 32.8517 21.3132C32.487 22.7562 31.7392 24.0795 30.6594 25.1594Z" fill="#0D47A1"/>
<g clip-path="url(#clip0_685_277)">
<path d="M53.7803 20.2871H48.5244V24.2246H54.668V26H46.3008V13.2031H54.6064V14.9961H48.5244V18.5293H53.7803V20.2871ZM58.2539 16.4902L58.3154 17.5889C59.0186 16.7393 59.9414 16.3145 61.084 16.3145C63.0645 16.3145 64.0723 17.4482 64.1074 19.7158V26H61.9717V19.8389C61.9717 19.2354 61.8398 18.79 61.5762 18.5029C61.3184 18.21 60.8936 18.0635 60.3018 18.0635C59.4404 18.0635 58.7988 18.4531 58.377 19.2324V26H56.2412V16.4902H58.2539ZM65.918 21.1748C65.918 19.6982 66.2637 18.5205 66.9551 17.6416C67.6523 16.7568 68.5752 16.3145 69.7236 16.3145C70.8076 16.3145 71.6602 16.6924 72.2812 17.4482L72.3779 16.4902H74.3027V25.71C74.3027 26.958 73.9131 27.9424 73.1338 28.6631C72.3604 29.3838 71.3145 29.7441 69.9961 29.7441C69.2988 29.7441 68.6162 29.5977 67.9482 29.3047C67.2861 29.0176 66.7822 28.6396 66.4365 28.1709L67.4473 26.8877C68.1035 27.667 68.9121 28.0566 69.873 28.0566C70.582 28.0566 71.1416 27.8633 71.5518 27.4766C71.9619 27.0957 72.167 26.5332 72.167 25.7891V25.1475C71.5518 25.833 70.7314 26.1758 69.7061 26.1758C68.5928 26.1758 67.6816 25.7334 66.9727 24.8486C66.2695 23.9639 65.918 22.7393 65.918 21.1748ZM68.0449 21.3594C68.0449 22.3145 68.2383 23.0674 68.625 23.6182C69.0176 24.1631 69.5596 24.4355 70.251 24.4355C71.1123 24.4355 71.751 24.0664 72.167 23.3281V19.1445C71.7627 18.4238 71.1299 18.0635 70.2686 18.0635C69.5654 18.0635 69.0176 18.3418 68.625 18.8984C68.2383 19.4551 68.0449 20.2754 68.0449 21.3594ZM78.7764 26H76.6406V12.5H78.7764V26ZM83.3818 26H81.2461V16.4902H83.3818V26ZM81.1143 14.0205C81.1143 13.6924 81.2168 13.4199 81.4219 13.2031C81.6328 12.9863 81.9316 12.8779 82.3184 12.8779C82.7051 12.8779 83.0039 12.9863 83.2148 13.2031C83.4258 13.4199 83.5312 13.6924 83.5312 14.0205C83.5312 14.3428 83.4258 14.6123 83.2148 14.8291C83.0039 15.04 82.7051 15.1455 82.3184 15.1455C81.9316 15.1455 81.6328 15.04 81.4219 14.8291C81.2168 14.6123 81.1143 14.3428 81.1143 14.0205ZM91.0459 23.416C91.0459 23.0352 90.8877 22.7451 90.5713 22.5459C90.2607 22.3467 89.7422 22.1709 89.0156 22.0186C88.2891 21.8662 87.6826 21.6729 87.1963 21.4385C86.1299 20.9229 85.5967 20.1758 85.5967 19.1973C85.5967 18.377 85.9424 17.6914 86.6338 17.1406C87.3252 16.5898 88.2041 16.3145 89.2705 16.3145C90.4072 16.3145 91.3242 16.5957 92.0215 17.1582C92.7246 17.7207 93.0762 18.4502 93.0762 19.3467H90.9404C90.9404 18.9365 90.7881 18.5967 90.4834 18.3271C90.1787 18.0518 89.7744 17.9141 89.2705 17.9141C88.8018 17.9141 88.418 18.0225 88.1191 18.2393C87.8262 18.4561 87.6797 18.7461 87.6797 19.1094C87.6797 19.4375 87.8174 19.6924 88.0928 19.874C88.3682 20.0557 88.9248 20.2402 89.7627 20.4277C90.6006 20.6094 91.2568 20.8291 91.7314 21.0869C92.2119 21.3389 92.5664 21.6436 92.7949 22.001C93.0293 22.3584 93.1465 22.792 93.1465 23.3018C93.1465 24.1572 92.792 24.8516 92.083 25.3848C91.374 25.9121 90.4453 26.1758 89.2969 26.1758C88.5176 26.1758 87.8232 26.0352 87.2139 25.7539C86.6045 25.4727 86.1299 25.0859 85.79 24.5938C85.4502 24.1016 85.2803 23.5713 85.2803 23.0029H87.3545C87.3838 23.5068 87.5742 23.8965 87.9258 24.1719C88.2773 24.4414 88.7432 24.5762 89.3232 24.5762C89.8857 24.5762 90.3135 24.4707 90.6064 24.2598C90.8994 24.043 91.0459 23.7617 91.0459 23.416ZM97.1191 17.5273C97.8164 16.7188 98.6982 16.3145 99.7646 16.3145C101.792 16.3145 102.82 17.4717 102.85 19.7861V26H100.714V19.8652C100.714 19.209 100.57 18.7461 100.283 18.4766C100.002 18.2012 99.5859 18.0635 99.0352 18.0635C98.1797 18.0635 97.541 18.4443 97.1191 19.2061V26H94.9834V12.5H97.1191V17.5273ZM113.643 21.4209H109.028V19.6982H113.643V21.4209ZM127.573 20.2871H122.317V24.2246H128.461V26H120.094V13.2031H128.399V14.9961H122.317V18.5293H127.573V20.2871ZM132.047 16.4902L132.108 17.5889C132.812 16.7393 133.734 16.3145 134.877 16.3145C136.857 16.3145 137.865 17.4482 137.9 19.7158V26H135.765V19.8389C135.765 19.2354 135.633 18.79 135.369 18.5029C135.111 18.21 134.687 18.0635 134.095 18.0635C133.233 18.0635 132.592 18.4531 132.17 19.2324V26H130.034V16.4902H132.047Z" fill="black"/>
</g>
<defs>
<clipPath id="clip0_685_277">
<rect width="136" height="21" fill="white" transform="translate(45 9)"/>
</clipPath>
</defs>
</svg>
