
<svg width="175" height="164" viewBox="0 0 175 164" fill="none" xmlns="http://www.w3.org/2000/svg">
<path d="M49.3203 24.8984H57.7812V31.0156H49.3203V40.5781H42.875V31.0156H34.3906V24.8984H42.875V15.7344H49.3203V24.8984ZM68.4688 23.9375H72.0781C73.7969 23.9375 75.0703 23.5078 75.8984 22.6484C76.7266 21.7891 77.1406 20.6484 77.1406 19.2266C77.1406 17.8516 76.7266 16.7812 75.8984 16.0156C75.0859 15.25 73.9609 14.8672 72.5234 14.8672C71.2266 14.8672 70.1406 15.2266 69.2656 15.9453C68.3906 16.6484 67.9531 17.5703 67.9531 18.7109H61.1797C61.1797 16.9297 61.6562 15.3359 62.6094 13.9297C63.5781 12.5078 64.9219 11.3984 66.6406 10.6016C68.375 9.80469 70.2812 9.40625 72.3594 9.40625C75.9688 9.40625 78.7969 10.2734 80.8438 12.0078C82.8906 13.7266 83.9141 16.1016 83.9141 19.1328C83.9141 20.6953 83.4375 22.1328 82.4844 23.4453C81.5312 24.7578 80.2812 25.7656 78.7344 26.4688C80.6562 27.1562 82.0859 28.1875 83.0234 29.5625C83.9766 30.9375 84.4531 32.5625 84.4531 34.4375C84.4531 37.4688 83.3438 39.8984 81.125 41.7266C78.9219 43.5547 76 44.4688 72.3594 44.4688C68.9531 44.4688 66.1641 43.5703 63.9922 41.7734C61.8359 39.9766 60.7578 37.6016 60.7578 34.6484H67.5312C67.5312 35.9297 68.0078 36.9766 68.9609 37.7891C69.9297 38.6016 71.1172 39.0078 72.5234 39.0078C74.1328 39.0078 75.3906 38.5859 76.2969 37.7422C77.2188 36.8828 77.6797 35.75 77.6797 34.3438C77.6797 30.9375 75.8047 29.2344 72.0547 29.2344H68.4688V23.9375ZM112.109 29.8906C112.109 34.6094 111.133 38.2188 109.18 40.7188C107.227 43.2188 104.367 44.4688 100.602 44.4688C96.8828 44.4688 94.0391 43.2422 92.0703 40.7891C90.1016 38.3359 89.0938 34.8203 89.0469 30.2422V23.9609C89.0469 19.1953 90.0312 15.5781 92 13.1094C93.9844 10.6406 96.8359 9.40625 100.555 9.40625C104.273 9.40625 107.117 10.6328 109.086 13.0859C111.055 15.5234 112.062 19.0312 112.109 23.6094V29.8906ZM105.336 23C105.336 20.1719 104.945 18.1172 104.164 16.8359C103.398 15.5391 102.195 14.8906 100.555 14.8906C98.9609 14.8906 97.7812 15.5078 97.0156 16.7422C96.2656 17.9609 95.8672 19.875 95.8203 22.4844V30.7812C95.8203 33.5625 96.1953 35.6328 96.9453 36.9922C97.7109 38.3359 98.9297 39.0078 100.602 39.0078C102.258 39.0078 103.453 38.3594 104.188 37.0625C104.922 35.7656 105.305 33.7812 105.336 31.1094V23ZM139.672 29.8906C139.672 34.6094 138.695 38.2188 136.742 40.7188C134.789 43.2188 131.93 44.4688 128.164 44.4688C124.445 44.4688 121.602 43.2422 119.633 40.7891C117.664 38.3359 116.656 34.8203 116.609 30.2422V23.9609C116.609 19.1953 117.594 15.5781 119.562 13.1094C121.547 10.6406 124.398 9.40625 128.117 9.40625C131.836 9.40625 134.68 10.6328 136.648 13.0859C138.617 15.5234 139.625 19.0312 139.672 23.6094V29.8906ZM132.898 23C132.898 20.1719 132.508 18.1172 131.727 16.8359C130.961 15.5391 129.758 14.8906 128.117 14.8906C126.523 14.8906 125.344 15.5078 124.578 16.7422C123.828 17.9609 123.43 19.875 123.383 22.4844V30.7812C123.383 33.5625 123.758 35.6328 124.508 36.9922C125.273 38.3359 126.492 39.0078 128.164 39.0078C129.82 39.0078 131.016 38.3594 131.75 37.0625C132.484 35.7656 132.867 33.7812 132.898 31.1094V23Z" fill="black" fill-opacity="0.87"/>
<rect x="53" y="88" width="68.5" height="11.5" rx="5.75" fill="#2196F3"/>
<path d="M54.9688 142.445C54.7969 144.266 54.125 145.688 52.9531 146.711C51.7812 147.727 50.2227 148.234 48.2773 148.234C46.918 148.234 45.7188 147.914 44.6797 147.273C43.6484 146.625 42.8516 145.707 42.2891 144.52C41.7266 143.332 41.4336 141.953 41.4102 140.383V138.789C41.4102 137.18 41.6953 135.762 42.2656 134.535C42.8359 133.309 43.6523 132.363 44.7148 131.699C45.7852 131.035 47.0195 130.703 48.418 130.703C50.3008 130.703 51.8164 131.215 52.9648 132.238C54.1133 133.262 54.7812 134.707 54.9688 136.574H52.0156C51.875 135.348 51.5156 134.465 50.9375 133.926C50.3672 133.379 49.5273 133.105 48.418 133.105C47.1289 133.105 46.1367 133.578 45.4414 134.523C44.7539 135.461 44.4023 136.84 44.3867 138.66V140.172C44.3867 142.016 44.7148 143.422 45.3711 144.391C46.0352 145.359 47.0039 145.844 48.2773 145.844C49.4414 145.844 50.3164 145.582 50.9023 145.059C51.4883 144.535 51.8594 143.664 52.0156 142.445H54.9688ZM60.5938 145.633H68.3398V148H57.6289V130.938H60.5938V145.633ZM73.7422 148H70.7891V130.938H73.7422V148ZM87.3594 140.383H80.3516V145.633H88.543V148H77.3867V130.938H88.4609V133.328H80.3516V138.039H87.3594V140.383ZM104.492 148H101.527L93.9219 135.895V148H90.957V130.938H93.9219L101.551 143.09V130.938H104.492V148ZM119.973 133.328H114.652V148H111.711V133.328H106.438V130.938H119.973V133.328ZM130.953 143.605C130.953 142.855 130.688 142.277 130.156 141.871C129.633 141.465 128.684 141.055 127.309 140.641C125.934 140.227 124.84 139.766 124.027 139.258C122.473 138.281 121.695 137.008 121.695 135.438C121.695 134.062 122.254 132.93 123.371 132.039C124.496 131.148 125.953 130.703 127.742 130.703C128.93 130.703 129.988 130.922 130.918 131.359C131.848 131.797 132.578 132.422 133.109 133.234C133.641 134.039 133.906 134.934 133.906 135.918H130.953C130.953 135.027 130.672 134.332 130.109 133.832C129.555 133.324 128.758 133.07 127.719 133.07C126.75 133.07 125.996 133.277 125.457 133.691C124.926 134.105 124.66 134.684 124.66 135.426C124.66 136.051 124.949 136.574 125.527 136.996C126.105 137.41 127.059 137.816 128.387 138.215C129.715 138.605 130.781 139.055 131.586 139.562C132.391 140.062 132.98 140.641 133.355 141.297C133.73 141.945 133.918 142.707 133.918 143.582C133.918 145.004 133.371 146.137 132.277 146.98C131.191 147.816 129.715 148.234 127.848 148.234C126.613 148.234 125.477 148.008 124.438 147.555C123.406 147.094 122.602 146.461 122.023 145.656C121.453 144.852 121.168 143.914 121.168 142.844H124.133C124.133 143.812 124.453 144.562 125.094 145.094C125.734 145.625 126.652 145.891 127.848 145.891C128.879 145.891 129.652 145.684 130.168 145.27C130.691 144.848 130.953 144.293 130.953 143.605Z" fill="black" fill-opacity="0.87"/>
</svg>
