<svg width="175" height="164" viewBox="0 0 175 164" fill="none" xmlns="http://www.w3.org/2000/svg">
<path d="M49.3203 24.8984H57.7812V31.0156H49.3203V40.5781H42.875V31.0156H34.3906V24.8984H42.875V15.7344H49.3203V24.8984ZM62.5859 27.2188L64.5547 9.875H83.6797V15.5234H70.1094L69.2656 22.8594C70.875 22 72.5859 21.5703 74.3984 21.5703C77.6484 21.5703 80.1953 22.5781 82.0391 24.5938C83.8828 26.6094 84.8047 29.4297 84.8047 33.0547C84.8047 35.2578 84.3359 37.2344 83.3984 38.9844C82.4766 40.7188 81.1484 42.0703 79.4141 43.0391C77.6797 43.9922 75.6328 44.4688 73.2734 44.4688C71.2109 44.4688 69.2969 44.0547 67.5312 43.2266C65.7656 42.3828 64.3672 41.2031 63.3359 39.6875C62.3203 38.1719 61.7812 36.4453 61.7188 34.5078H68.4219C68.5625 35.9297 69.0547 37.0391 69.8984 37.8359C70.7578 38.6172 71.875 39.0078 73.25 39.0078C74.7812 39.0078 75.9609 38.4609 76.7891 37.3672C77.6172 36.2578 78.0312 34.6953 78.0312 32.6797C78.0312 30.7422 77.5547 29.2578 76.6016 28.2266C75.6484 27.1953 74.2969 26.6797 72.5469 26.6797C70.9375 26.6797 69.6328 27.1016 68.6328 27.9453L67.9766 28.5547L62.5859 27.2188ZM112.109 29.8906C112.109 34.6094 111.133 38.2188 109.18 40.7188C107.227 43.2188 104.367 44.4688 100.602 44.4688C96.8828 44.4688 94.0391 43.2422 92.0703 40.7891C90.1016 38.3359 89.0938 34.8203 89.0469 30.2422V23.9609C89.0469 19.1953 90.0312 15.5781 92 13.1094C93.9844 10.6406 96.8359 9.40625 100.555 9.40625C104.273 9.40625 107.117 10.6328 109.086 13.0859C111.055 15.5234 112.062 19.0312 112.109 23.6094V29.8906ZM105.336 23C105.336 20.1719 104.945 18.1172 104.164 16.8359C103.398 15.5391 102.195 14.8906 100.555 14.8906C98.9609 14.8906 97.7812 15.5078 97.0156 16.7422C96.2656 17.9609 95.8672 19.875 95.8203 22.4844V30.7812C95.8203 33.5625 96.1953 35.6328 96.9453 36.9922C97.7109 38.3359 98.9297 39.0078 100.602 39.0078C102.258 39.0078 103.453 38.3594 104.188 37.0625C104.922 35.7656 105.305 33.7812 105.336 31.1094V23ZM139.672 29.8906C139.672 34.6094 138.695 38.2188 136.742 40.7188C134.789 43.2188 131.93 44.4688 128.164 44.4688C124.445 44.4688 121.602 43.2422 119.633 40.7891C117.664 38.3359 116.656 34.8203 116.609 30.2422V23.9609C116.609 19.1953 117.594 15.5781 119.562 13.1094C121.547 10.6406 124.398 9.40625 128.117 9.40625C131.836 9.40625 134.68 10.6328 136.648 13.0859C138.617 15.5234 139.625 19.0312 139.672 23.6094V29.8906ZM132.898 23C132.898 20.1719 132.508 18.1172 131.727 16.8359C130.961 15.5391 129.758 14.8906 128.117 14.8906C126.523 14.8906 125.344 15.5078 124.578 16.7422C123.828 17.9609 123.43 19.875 123.383 22.4844V30.7812C123.383 33.5625 123.758 35.6328 124.508 36.9922C125.273 38.3359 126.492 39.0078 128.164 39.0078C129.82 39.0078 131.016 38.3594 131.75 37.0625C132.484 35.7656 132.867 33.7812 132.898 31.1094V23Z" fill="black" fill-opacity="0.87"/>
<rect x="53" y="88" width="68.5" height="11.5" rx="5.75" fill="#2196F3"/>
<path d="M40.3438 141.66V148H37.3789V130.938H43.9062C45.8125 130.938 47.3242 131.434 48.4414 132.426C49.5664 133.418 50.1289 134.73 50.1289 136.363C50.1289 138.035 49.5781 139.336 48.4766 140.266C47.3828 141.195 45.8477 141.66 43.8711 141.66H40.3438ZM40.3438 139.281H43.9062C44.9609 139.281 45.7656 139.035 46.3203 138.543C46.875 138.043 47.1523 137.324 47.1523 136.387C47.1523 135.465 46.8711 134.73 46.3086 134.184C45.7461 133.629 44.9727 133.344 43.9883 133.328H40.3438V139.281ZM59 141.426H55.6953V148H52.7305V130.938H58.7305C60.6992 130.938 62.2188 131.379 63.2891 132.262C64.3594 133.145 64.8945 134.422 64.8945 136.094C64.8945 137.234 64.6172 138.191 64.0625 138.965C63.5156 139.73 62.75 140.32 61.7656 140.734L65.5977 147.848V148H62.4219L59 141.426ZM55.6953 139.047H58.7422C59.7422 139.047 60.5234 138.797 61.0859 138.297C61.6484 137.789 61.9297 137.098 61.9297 136.223C61.9297 135.309 61.668 134.602 61.1445 134.102C60.6289 133.602 59.8555 133.344 58.8242 133.328H55.6953V139.047ZM81.3242 139.914C81.3242 141.586 81.0352 143.055 80.457 144.32C79.8789 145.578 79.0508 146.547 77.9727 147.227C76.9023 147.898 75.668 148.234 74.2695 148.234C72.8867 148.234 71.6523 147.898 70.5664 147.227C69.4883 146.547 68.6523 145.582 68.0586 144.332C67.4727 143.082 67.1758 141.641 67.168 140.008V139.047C67.168 137.383 67.4609 135.914 68.0469 134.641C68.6406 133.367 69.4727 132.395 70.543 131.723C71.6211 131.043 72.8555 130.703 74.2461 130.703C75.6367 130.703 76.8672 131.039 77.9375 131.711C79.0156 132.375 79.8477 133.336 80.4336 134.594C81.0195 135.844 81.3164 137.301 81.3242 138.965V139.914ZM78.3594 139.023C78.3594 137.133 78 135.684 77.2812 134.676C76.5703 133.668 75.5586 133.164 74.2461 133.164C72.9648 133.164 71.9609 133.668 71.2344 134.676C70.5156 135.676 70.1484 137.094 70.1328 138.93V139.914C70.1328 141.789 70.4961 143.238 71.2227 144.262C71.957 145.285 72.9727 145.797 74.2695 145.797C75.582 145.797 76.5898 145.297 77.293 144.297C78.0039 143.297 78.3594 141.836 78.3594 139.914V139.023ZM91.2617 130.938H94.2148V142.902C94.2148 144.535 93.7031 145.832 92.6797 146.793C91.6641 147.754 90.3203 148.234 88.6484 148.234C86.8672 148.234 85.4922 147.785 84.5234 146.887C83.5547 145.988 83.0703 144.738 83.0703 143.137H86.0234C86.0234 144.043 86.2461 144.727 86.6914 145.188C87.1445 145.641 87.7969 145.867 88.6484 145.867C89.4453 145.867 90.0781 145.605 90.5469 145.082C91.0234 144.551 91.2617 143.82 91.2617 142.891V130.938ZM107.586 140.383H100.578V145.633H108.77V148H97.6133V130.938H108.688V133.328H100.578V138.039H107.586V140.383ZM124.203 142.445C124.031 144.266 123.359 145.688 122.188 146.711C121.016 147.727 119.457 148.234 117.512 148.234C116.152 148.234 114.953 147.914 113.914 147.273C112.883 146.625 112.086 145.707 111.523 144.52C110.961 143.332 110.668 141.953 110.645 140.383V138.789C110.645 137.18 110.93 135.762 111.5 134.535C112.07 133.309 112.887 132.363 113.949 131.699C115.02 131.035 116.254 130.703 117.652 130.703C119.535 130.703 121.051 131.215 122.199 132.238C123.348 133.262 124.016 134.707 124.203 136.574H121.25C121.109 135.348 120.75 134.465 120.172 133.926C119.602 133.379 118.762 133.105 117.652 133.105C116.363 133.105 115.371 133.578 114.676 134.523C113.988 135.461 113.637 136.84 113.621 138.66V140.172C113.621 142.016 113.949 143.422 114.605 144.391C115.27 145.359 116.238 145.844 117.512 145.844C118.676 145.844 119.551 145.582 120.137 145.059C120.723 144.535 121.094 143.664 121.25 142.445H124.203ZM138.84 133.328H133.52V148H130.578V133.328H125.305V130.938H138.84V133.328Z" fill="black" fill-opacity="0.87"/>
</svg>