<svg width="156" height="16" viewBox="0 0 156 16" fill="none" xmlns="http://www.w3.org/2000/svg">
<path d="M8.74219 7.33594C8.74219 8.13281 8.51562 8.74219 8.0625 9.16406C7.61458 9.58073 6.97917 9.78906 6.15625 9.78906C5.33854 9.78906 4.68229 9.51562 4.1875 8.96875C3.69792 8.41667 3.45312 7.66667 3.45312 6.71875V5.85938C3.45312 4.94271 3.70052 4.21094 4.19531 3.66406C4.69531 3.11198 5.34896 2.83594 6.15625 2.83594C6.98958 2.83594 7.63021 3.04948 8.07812 3.47656C8.52604 3.90365 8.75 4.50521 8.75 5.28125H7.60938C7.60938 4.76562 7.48438 4.39844 7.23438 4.17969C6.98958 3.95573 6.63021 3.84375 6.15625 3.84375C5.66667 3.84375 5.28125 4.02344 5 4.38281C4.71875 4.74219 4.57812 5.24219 4.57812 5.88281V6.76562C4.57812 7.39062 4.71875 7.88281 5 8.24219C5.28125 8.60156 5.66667 8.78125 6.15625 8.78125C6.63542 8.78125 6.99479 8.67188 7.23438 8.45312C7.47917 8.23438 7.60156 7.86198 7.60156 7.33594H8.74219ZM1.60938 6.30469C1.60938 7.20052 1.81771 8.03125 2.23438 8.79688C2.65104 9.55729 3.21615 10.1536 3.92969 10.5859C4.64844 11.0182 5.42448 11.2344 6.25781 11.2344C7.09115 11.2344 7.86458 11.0182 8.57812 10.5859C9.29167 10.1536 9.85677 9.55729 10.2734 8.79688C10.6901 8.03125 10.8984 7.20052 10.8984 6.30469C10.8984 5.41927 10.6927 4.59896 10.2812 3.84375C9.86979 3.08854 9.30469 2.49479 8.58594 2.0625C7.8724 1.625 7.09635 1.40625 6.25781 1.40625C5.42448 1.40625 4.64844 1.6224 3.92969 2.05469C3.21094 2.48177 2.64323 3.07552 2.22656 3.83594C1.8151 4.59635 1.60938 5.41927 1.60938 6.30469ZM0.710938 6.30469C0.710938 5.2526 0.953125 4.27604 1.4375 3.375C1.92708 2.47396 2.60156 1.76562 3.46094 1.25C4.32552 0.729167 5.25781 0.46875 6.25781 0.46875C7.25781 0.46875 8.1875 0.729167 9.04688 1.25C9.90625 1.76562 10.5781 2.47396 11.0625 3.375C11.5521 4.27604 11.7969 5.2526 11.7969 6.30469C11.7969 7.33073 11.5625 8.29167 11.0938 9.1875C10.625 10.0833 9.95833 10.8047 9.09375 11.3516C8.23438 11.8932 7.28906 12.1641 6.25781 12.1641C5.23177 12.1641 4.28646 11.8958 3.42188 11.3594C2.5625 10.8177 1.89583 10.099 1.42188 9.20312C0.947917 8.30729 0.710938 7.34115 0.710938 6.30469ZM21.2188 6.92969C19.9323 6.5599 18.9948 6.10677 18.4062 5.57031C17.8229 5.02865 17.5312 4.36198 17.5312 3.57031C17.5312 2.67448 17.888 1.9349 18.6016 1.35156C19.3203 0.763021 20.2526 0.46875 21.3984 0.46875C22.1797 0.46875 22.875 0.619792 23.4844 0.921875C24.099 1.22396 24.5729 1.64062 24.9062 2.17188C25.2448 2.70312 25.4141 3.28385 25.4141 3.91406H23.9062C23.9062 3.22656 23.6875 2.6875 23.25 2.29688C22.8125 1.90104 22.1953 1.70312 21.3984 1.70312C20.6589 1.70312 20.0807 1.86719 19.6641 2.19531C19.2526 2.51823 19.0469 2.96875 19.0469 3.54688C19.0469 4.01042 19.2422 4.40365 19.6328 4.72656C20.0286 5.04427 20.6979 5.33594 21.6406 5.60156C22.5885 5.86719 23.3281 6.16146 23.8594 6.48438C24.3958 6.80208 24.7917 7.17448 25.0469 7.60156C25.3073 8.02865 25.4375 8.53125 25.4375 9.10938C25.4375 10.0312 25.0781 10.7708 24.3594 11.3281C23.6406 11.8802 22.6797 12.1562 21.4766 12.1562C20.6953 12.1562 19.9661 12.0078 19.2891 11.7109C18.612 11.4089 18.0885 10.9974 17.7188 10.4766C17.3542 9.95573 17.1719 9.36458 17.1719 8.70312H18.6797C18.6797 9.39062 18.9323 9.9349 19.4375 10.3359C19.9479 10.7318 20.6276 10.9297 21.4766 10.9297C22.2682 10.9297 22.875 10.7682 23.2969 10.4453C23.7188 10.1224 23.9297 9.68229 23.9297 9.125C23.9297 8.56771 23.7344 8.13802 23.3438 7.83594C22.9531 7.52865 22.2448 7.22656 21.2188 6.92969ZM29.5 8.08594L28.5938 9.03125V12H27.1484V0H28.5938V7.25781L29.3672 6.32812L32 3.54688H33.7578L30.4688 7.07812L34.1406 12H32.4453L29.5 8.08594ZM38.0156 9.88281L39.9844 3.54688H41.5312L38.1328 13.3047C37.6068 14.7109 36.7708 15.4141 35.625 15.4141L35.3516 15.3906L34.8125 15.2891V14.1172L35.2031 14.1484C35.6927 14.1484 36.0729 14.0495 36.3438 13.8516C36.6198 13.6536 36.8464 13.2917 37.0234 12.7656L37.3438 11.9062L34.3281 3.54688H35.9062L38.0156 9.88281ZM46.9141 4.84375C46.6953 4.80729 46.4583 4.78906 46.2031 4.78906C45.2552 4.78906 44.612 5.19271 44.2734 6V12H42.8281V3.54688H44.2344L44.2578 4.52344C44.7318 3.76823 45.4036 3.39062 46.2734 3.39062C46.5547 3.39062 46.7682 3.42708 46.9141 3.5V4.84375ZM51.6016 12.1562C50.4557 12.1562 49.5234 11.7812 48.8047 11.0312C48.0859 10.276 47.7266 9.26823 47.7266 8.00781V7.74219C47.7266 6.90365 47.8854 6.15625 48.2031 5.5C48.526 4.83854 48.974 4.32292 49.5469 3.95312C50.125 3.57812 50.75 3.39062 51.4219 3.39062C52.5208 3.39062 53.375 3.7526 53.9844 4.47656C54.5938 5.20052 54.8984 6.23698 54.8984 7.58594V8.1875H49.1719C49.1927 9.02083 49.4349 9.69531 49.8984 10.2109C50.3672 10.7214 50.9609 10.9766 51.6797 10.9766C52.1901 10.9766 52.6224 10.8724 52.9766 10.6641C53.3307 10.4557 53.6406 10.1797 53.9062 9.83594L54.7891 10.5234C54.0807 11.612 53.0182 12.1562 51.6016 12.1562ZM51.4219 4.57812C50.8385 4.57812 50.349 4.79167 49.9531 5.21875C49.5573 5.64062 49.3125 6.23438 49.2188 7H53.4531V6.89062C53.4115 6.15625 53.2135 5.58854 52.8594 5.1875C52.5052 4.78125 52.026 4.57812 51.4219 4.57812ZM59.2578 10.0391L61.3516 3.54688H62.8281L59.7969 12H58.6953L55.6328 3.54688H57.1094L59.2578 10.0391ZM75.9609 1.85938H72.3047V12H70.8125V1.85938H67.1641V0.625H75.9609V1.85938ZM78.8672 4.57031C79.5078 3.78385 80.3411 3.39062 81.3672 3.39062C83.1536 3.39062 84.0547 4.39844 84.0703 6.41406V12H82.625V6.40625C82.6198 5.79688 82.4792 5.34635 82.2031 5.05469C81.9323 4.76302 81.5078 4.61719 80.9297 4.61719C80.4609 4.61719 80.0495 4.74219 79.6953 4.99219C79.3411 5.24219 79.0651 5.57031 78.8672 5.97656V12H77.4219V0H78.8672V4.57031ZM89.7422 12.1562C88.5964 12.1562 87.6641 11.7812 86.9453 11.0312C86.2266 10.276 85.8672 9.26823 85.8672 8.00781V7.74219C85.8672 6.90365 86.026 6.15625 86.3438 5.5C86.6667 4.83854 87.1146 4.32292 87.6875 3.95312C88.2656 3.57812 88.8906 3.39062 89.5625 3.39062C90.6615 3.39062 91.5156 3.7526 92.125 4.47656C92.7344 5.20052 93.0391 6.23698 93.0391 7.58594V8.1875H87.3125C87.3333 9.02083 87.5755 9.69531 88.0391 10.2109C88.5078 10.7214 89.1016 10.9766 89.8203 10.9766C90.3307 10.9766 90.763 10.8724 91.1172 10.6641C91.4714 10.4557 91.7812 10.1797 92.0469 9.83594L92.9297 10.5234C92.2214 11.612 91.1589 12.1562 89.7422 12.1562ZM89.5625 4.57812C88.9792 4.57812 88.4896 4.79167 88.0938 5.21875C87.6979 5.64062 87.4531 6.23438 87.3594 7H91.5938V6.89062C91.5521 6.15625 91.3542 5.58854 91 5.1875C90.6458 4.78125 90.1667 4.57812 89.5625 4.57812ZM96.0781 3.54688L96.1172 4.48438C96.737 3.75521 97.5729 3.39062 98.625 3.39062C99.8073 3.39062 100.612 3.84375 101.039 4.75C101.32 4.34375 101.685 4.01562 102.133 3.76562C102.586 3.51562 103.12 3.39062 103.734 3.39062C105.589 3.39062 106.531 4.3724 106.562 6.33594V12H105.117V6.42188C105.117 5.81771 104.979 5.36719 104.703 5.07031C104.427 4.76823 103.964 4.61719 103.312 4.61719C102.776 4.61719 102.331 4.77865 101.977 5.10156C101.622 5.41927 101.417 5.84896 101.359 6.39062V12H99.9062V6.46094C99.9062 5.23177 99.3047 4.61719 98.1016 4.61719C97.1536 4.61719 96.5052 5.02083 96.1562 5.82812V12H94.7109V3.54688H96.0781ZM112.258 12.1562C111.112 12.1562 110.18 11.7812 109.461 11.0312C108.742 10.276 108.383 9.26823 108.383 8.00781V7.74219C108.383 6.90365 108.542 6.15625 108.859 5.5C109.182 4.83854 109.63 4.32292 110.203 3.95312C110.781 3.57812 111.406 3.39062 112.078 3.39062C113.177 3.39062 114.031 3.7526 114.641 4.47656C115.25 5.20052 115.555 6.23698 115.555 7.58594V8.1875H109.828C109.849 9.02083 110.091 9.69531 110.555 10.2109C111.023 10.7214 111.617 10.9766 112.336 10.9766C112.846 10.9766 113.279 10.8724 113.633 10.6641C113.987 10.4557 114.297 10.1797 114.562 9.83594L115.445 10.5234C114.737 11.612 113.674 12.1562 112.258 12.1562ZM112.078 4.57812C111.495 4.57812 111.005 4.79167 110.609 5.21875C110.214 5.64062 109.969 6.23438 109.875 7H114.109V6.89062C114.068 6.15625 113.87 5.58854 113.516 5.1875C113.161 4.78125 112.682 4.57812 112.078 4.57812ZM128.508 12H121.055V10.9609L124.992 6.58594C125.576 5.92448 125.977 5.38802 126.195 4.97656C126.419 4.5599 126.531 4.13021 126.531 3.6875C126.531 3.09375 126.352 2.60677 125.992 2.22656C125.633 1.84635 125.154 1.65625 124.555 1.65625C123.836 1.65625 123.276 1.86198 122.875 2.27344C122.479 2.67969 122.281 3.2474 122.281 3.97656H120.836C120.836 2.92969 121.172 2.08333 121.844 1.4375C122.521 0.791667 123.424 0.46875 124.555 0.46875C125.612 0.46875 126.448 0.747396 127.062 1.30469C127.677 1.85677 127.984 2.59375 127.984 3.51562C127.984 4.63542 127.271 5.96875 125.844 7.51562L122.797 10.8203H128.508V12ZM137.172 7.14844C137.172 8.84115 136.883 10.099 136.305 10.9219C135.727 11.7448 134.823 12.1562 133.594 12.1562C132.38 12.1562 131.482 11.7552 130.898 10.9531C130.315 10.1458 130.013 8.94271 129.992 7.34375V5.41406C129.992 3.74219 130.281 2.5 130.859 1.6875C131.438 0.875 132.344 0.46875 133.578 0.46875C134.802 0.46875 135.703 0.861979 136.281 1.64844C136.859 2.42969 137.156 3.63802 137.172 5.27344V7.14844ZM135.727 5.17188C135.727 3.94792 135.555 3.05729 135.211 2.5C134.867 1.9375 134.323 1.65625 133.578 1.65625C132.839 1.65625 132.299 1.9349 131.961 2.49219C131.622 3.04948 131.448 3.90625 131.438 5.0625V7.375C131.438 8.60417 131.615 9.51302 131.969 10.1016C132.328 10.6849 132.87 10.9766 133.594 10.9766C134.307 10.9766 134.836 10.7005 135.18 10.1484C135.529 9.59635 135.711 8.72656 135.727 7.53906V5.17188ZM146.477 12H139.023V10.9609L142.961 6.58594C143.544 5.92448 143.945 5.38802 144.164 4.97656C144.388 4.5599 144.5 4.13021 144.5 3.6875C144.5 3.09375 144.32 2.60677 143.961 2.22656C143.602 1.84635 143.122 1.65625 142.523 1.65625C141.805 1.65625 141.245 1.86198 140.844 2.27344C140.448 2.67969 140.25 3.2474 140.25 3.97656H138.805C138.805 2.92969 139.141 2.08333 139.812 1.4375C140.49 0.791667 141.393 0.46875 142.523 0.46875C143.581 0.46875 144.417 0.747396 145.031 1.30469C145.646 1.85677 145.953 2.59375 145.953 3.51562C145.953 4.63542 145.24 5.96875 143.812 7.51562L140.766 10.8203H146.477V12ZM155.141 7.14844C155.141 8.84115 154.852 10.099 154.273 10.9219C153.695 11.7448 152.792 12.1562 151.562 12.1562C150.349 12.1562 149.451 11.7552 148.867 10.9531C148.284 10.1458 147.982 8.94271 147.961 7.34375V5.41406C147.961 3.74219 148.25 2.5 148.828 1.6875C149.406 0.875 150.312 0.46875 151.547 0.46875C152.771 0.46875 153.672 0.861979 154.25 1.64844C154.828 2.42969 155.125 3.63802 155.141 5.27344V7.14844ZM153.695 5.17188C153.695 3.94792 153.523 3.05729 153.18 2.5C152.836 1.9375 152.292 1.65625 151.547 1.65625C150.807 1.65625 150.268 1.9349 149.93 2.49219C149.591 3.04948 149.417 3.90625 149.406 5.0625V7.375C149.406 8.60417 149.583 9.51302 149.938 10.1016C150.297 10.6849 150.839 10.9766 151.562 10.9766C152.276 10.9766 152.805 10.7005 153.148 10.1484C153.497 9.59635 153.68 8.72656 153.695 7.53906V5.17188Z" fill="black" fill-opacity="0.54"/>
</svg>
